<?xml version="1.0" encoding="UTF-8" standalone="no"?>
<!-- Created with Inkscape (http://www.inkscape.org/) -->

<svg
   version="1.1"
   id="svg2"
   width="906.3606"
   height="1075.6356"
   viewBox="0 0 906.3606 1075.6356"
   xmlns="http://www.w3.org/2000/svg"
   xmlns:svg="http://www.w3.org/2000/svg">
  <defs
     id="defs6" />
  <g
     id="g8"
     transform="matrix(1.3333333,0,0,-1.3333333,-358.00781,1326.6356)">
    <g
       id="g10"
       transform="scale(0.1)">
      <g
         id="g1">
        <path
           d="m 8655.99,1882.5 c -16.18,0 -33.05,0.6 -50.53,1.8 -149.32,9.9 -298.73,21.5 -447.33,39.4 v 299.72 h 529.22 V 1883.3 c -10.17,-0.6 -20.62,-0.8 -31.36,-0.8 m 63.39,3.7 v 337.22 h 240.37 c -6.2,-36.75 -12.83,-73.37 -19.94,-109.83 -29.16,-149.29 -102.86,-212.29 -220.43,-227.39 m -593.28,41.5 c -36.74,4.6 -73.41,9.7 -110.03,15.3 -138.05,20.9 -278.09,47.5 -419.17,73.36 v 207.06 h 529.2 V 1927.7 m -561.23,94.52 c -175.62,32.02 -352.66,62.22 -529.22,78.37 v 122.83 h 529.22 v -201.2 m -1483.65,44.79 c -43.63,0 -87.52,1.45 -131.74,4.83 -12.12,0.92 -24.24,1.93 -36.34,3.03 v 148.55 h 529.23 v -133.41 c -120.47,-11.84 -239.89,-23 -361.15,-23 m -200.1,10.93 c -177.51,18.07 -352.94,52.15 -529.22,79.36 v 66.12 h 529.22 v -145.48 m 593.28,15.23 v 130.25 h 529.22 v -120.05 c -73.38,5.99 -146.67,9.42 -219.7,9.42 -59.24,0 -118.35,-2.26 -177.19,-7.25 -44.37,-3.76 -88.43,-8.05 -132.33,-12.37 m -1154.52,68.99 c -176.65,26.23 -353.64,37.42 -530.87,42.6 v 18.66 h 530.87 v -61.26 m -562.91,43.47 c -176.16,4.46 -352.59,3.53 -529.2,6.1 v 11.69 h 529.2 v -17.79 m -561.22,6.6 c -43.41,0.74 -86.83,1.73 -130.25,3.09 -59.77,1.87 -121.67,4.34 -184.77,8.1 h 315.02 v -11.19 m 4769.28,43.22 h -245.65 v 529.22 h 307.82 c -15.2,-177.68 -34,-354.89 -62.17,-529.22 m -277.68,0 h -529.22 v 529.22 h 529.22 v -529.22 m -561.25,0 h -529.2 v 529.22 h 529.2 v -529.22 m -561.23,0 h -529.22 v 529.22 h 529.22 v -529.22 m -561.25,0 H 6474.4 v 529.22 h 529.22 v -529.22 m -561.25,0 h -529.23 v 529.22 h 529.23 v -529.22 m -561.25,0 H 5351.9 v 529.22 h 529.22 v -529.22 m -561.24,0 h -530.87 v 529.22 h 530.87 v -529.22 m -562.91,0 h -529.2 v 529.22 h 529.2 v -529.22 m -561.22,0 h -529.23 v 529.22 h 529.23 v -529.22 m -561.26,0 h -70.72 c -159.74,24.34 -317.29,63.42 -458.5,127.59 v 401.63 h 529.22 v -529.22 m -561.25,142.73 c -33.88,16.63 -66.71,34.8 -98.29,54.67 -117.98,74.25 -125.81,203.79 -121.07,331.82 h 219.36 v -386.49 m 5956.66,418.51 h -310.52 v 529.23 h 350.66 c -13.93,-175.14 -25.42,-352.33 -40.14,-529.23 m -342.55,0 h -529.22 v 529.23 h 529.22 v -529.23 m -561.25,0 h -529.2 v 529.23 h 529.2 v -529.23 m -561.23,0 h -529.22 v 529.23 h 529.22 v -529.23 m -561.25,0 H 6474.4 v 529.23 h 529.22 v -529.23 m -561.25,0 h -529.23 v 529.23 h 529.23 v -529.23 m -561.25,0 H 5351.9 v 529.23 h 529.22 v -529.23 m -561.24,0 h -530.87 v 529.23 h 530.87 v -529.23 m -562.91,0 h -529.2 v 529.23 h 529.2 v -529.23 m -561.22,0 h -529.23 v 529.23 h 529.23 v -529.23 m -561.26,0 h -529.22 v 529.23 h 529.22 v -529.23 m -561.25,0 h -217.97 c 1.64,33.83 3.59,67.19 4.02,99.08 1.96,143.38 4.05,286.78 6.7,430.15 h 207.25 v -529.23 m 5999.38,561.25 h -353.24 v 529.22 h 399.69 c -13.2,-148.62 -26.35,-297.16 -39.4,-445.77 -2.43,-27.74 -4.78,-55.59 -7.05,-83.45 m -385.27,0 h -529.22 v 529.22 h 529.22 v -529.22 m -561.25,0 h -529.2 v 529.22 h 529.2 v -529.22 m -561.23,0 h -529.22 v 529.22 h 529.22 v -529.22 m -561.25,0 H 6474.4 v 529.22 h 529.22 v -529.22 m -561.25,0 h -529.23 v 529.22 h 529.23 v -529.22 m -561.25,0 H 5351.9 v 529.22 h 529.22 v -529.22 m -561.24,0 h -530.87 v 529.22 h 530.87 v -529.22 m -562.91,0 h -529.2 v 529.22 h 529.2 v -529.22 m -561.22,0 h -529.23 v 529.22 h 529.23 v -529.22 m -561.26,0 h -529.22 v 529.22 h 529.22 v -529.22 m -561.25,0 H 2866.6 c 1.02,53.75 2.13,107.51 3.35,161.24 2.77,122.74 6.88,245.42 12.59,367.98 h 190.7 v -529.22 m 6048.68,561.24 h -402.54 v 529.23 H 9169 c -15.68,-176.42 -31.41,-352.83 -47.08,-529.23 m -434.57,0 h -529.22 v 529.23 h 529.22 v -529.23 m -561.25,0 h -529.2 v 529.23 h 529.2 v -529.23 m -561.23,0 h -529.22 v 529.23 h 529.22 v -529.23 m -561.25,0 H 6474.4 v 529.23 h 529.22 v -529.23 m -561.25,0 h -529.23 v 529.23 h 529.23 v -529.23 m -561.25,0 H 5351.9 v 529.23 h 529.22 v -529.23 m -561.24,0 h -530.87 v 529.23 h 530.87 v -529.23 m -562.91,0 h -529.2 v 529.23 h 529.2 v -529.23 m -561.22,0 h -529.23 v 529.23 h 529.23 v -529.23 m -561.26,0 h -529.22 v 529.23 h 529.22 v -529.23 m -561.25,0 h -189.17 c 8.65,176.69 20.69,353.13 36.97,529.23 h 152.2 v -529.23 m 6098.6,561.26 h -452.46 v 529.21 h 499.18 c -15.44,-176.43 -31.05,-352.8 -46.72,-529.21 m -484.49,0 h -529.22 v 529.21 h 529.22 v -529.21 m -561.25,0 h -529.2 v 529.21 h 529.2 v -529.21 m -561.23,0 h -529.22 v 529.21 h 529.22 v -529.21 m -561.25,0 H 6474.4 v 529.21 h 529.22 v -529.21 m -561.25,0 h -529.23 v 529.21 h 529.23 v -529.21 m -561.25,0 H 5351.9 v 529.21 h 529.22 v -529.21 m -561.24,0 h -530.87 v 529.21 h 530.87 v -529.21 m -562.91,0 h -529.2 v 529.21 h 529.2 v -529.21 m -561.22,0 h -529.23 v 529.21 h 529.23 v -529.21 m -561.26,0 h -529.22 v 529.21 h 529.22 v -529.21 m -561.25,0 h -149.2 c 13.26,139.03 29.2,277.86 48.21,416.39 5.16,37.64 10.53,75.24 16.06,112.82 h 84.93 v -529.21 m 6148.12,561.24 h -501.98 v 529.22 h 529.23 v -215.19 c -9.01,-104.66 -18.1,-209.38 -27.25,-314.03 m -534.01,0 h -529.22 v 529.22 h 529.22 v -529.22 m -561.25,0 h -529.2 v 529.22 h 529.2 v -529.22 m -561.23,0 h -529.22 v 529.22 h 529.22 v -529.22 m -561.25,0 H 6474.4 v 529.22 h 529.22 v -529.22 m -561.25,0 h -529.23 v 529.22 h 529.23 v -529.22 m -561.25,0 H 5351.9 v 529.22 h 529.22 v -529.22 m -561.24,0 h -530.87 v 529.22 h 530.87 v -529.22 m -562.91,0 h -529.2 v 529.22 h 529.2 v -529.22 m -561.22,0 h -529.23 v 529.22 h 529.23 v -529.22 m -561.26,0 h -529.22 v 529.22 h 529.22 v -529.22 m -561.25,0 h -80.18 c 24.85,166.1 52.68,331.73 80.18,497.44 v -497.44 m 6175.37,561.25 h -529.23 v 529.22 h 529.23 v -529.22 m -561.26,0 h -529.22 v 529.22 h 529.22 v -529.22 m -561.25,0 h -529.2 v 529.22 h 529.2 v -529.22 m -561.23,0 h -529.22 v 529.22 h 529.22 v -529.22 m -561.25,0 H 6474.4 v 529.22 h 529.22 v -529.22 m -561.25,0 h -529.23 v 529.22 h 529.23 v -529.22 m -561.25,0 H 5351.9 v 529.22 h 529.22 v -529.22 m -561.24,0 h -530.87 v 529.22 h 530.87 v -529.22 m -562.91,0 h -529.2 v 529.22 h 529.2 v -529.22 m -561.22,0 h -529.23 v 529.22 h 529.23 v -529.22 m -561.26,0 h -529.22 v 131.47 c 21.32,132.34 41.59,264.86 59.11,397.75 h 470.11 v -529.22 m 5646.14,129.71 v 399.51 h 32.89 c -10.75,-133.18 -21.73,-266.35 -32.89,-399.51 m 35.47,431.54 h -35.47 v 530.86 h 72.61 c -8.73,-149.78 -18.66,-299.45 -30.58,-448.95 -2.17,-27.29 -4.36,-54.62 -6.56,-81.91 m -67.49,0 h -529.23 v 530.86 h 529.23 v -530.86 m -561.26,0 h -529.22 v 530.86 h 529.22 v -530.86 m -561.25,0 h -529.2 v 530.86 h 529.2 v -530.86 m -561.23,0 h -529.22 v 530.86 h 529.22 v -530.86 m -561.25,0 H 6474.4 v 530.86 h 529.22 v -530.86 m -561.25,0 h -529.23 v 530.86 h 529.23 v -530.86 m -561.25,0 H 5351.9 v 530.86 h 529.22 v -530.86 m -561.24,0 h -530.87 v 530.86 h 530.87 v -530.86 m -562.91,0 h -529.2 v 530.86 h 529.2 v -530.86 m -561.22,0 h -529.23 v 530.86 h 529.23 v -530.86 m -561.26,0 h -465.94 c 4.53,35.24 8.85,70.51 12.94,105.81 16.38,141.46 27.63,283.16 36.24,425.05 h 416.76 v -530.86 m 5720.6,562.89 h -74.46 v 529.22 h 101.23 c -8.2,-176.41 -16.69,-352.91 -26.77,-529.22 m -106.48,0 h -529.23 v 529.22 h 529.23 v -529.22 m -561.26,0 h -529.22 v 529.22 h 529.22 v -529.22 m -561.25,0 h -529.2 v 529.22 h 529.2 v -529.22 m -561.23,0 h -529.22 v 529.22 h 529.22 v -529.22 m -561.25,0 H 6474.4 v 529.22 h 529.22 v -529.22 m -561.25,0 h -529.23 v 529.22 h 529.23 v -529.22 m -561.25,0 H 5351.9 v 529.22 h 529.22 v -529.22 m -561.24,0 h -530.87 v 529.22 h 530.87 v -529.22 m -562.91,0 h -529.2 v 529.22 h 529.2 v -529.22 m -561.22,0 h -529.23 v 529.22 h 529.23 v -529.22 m -561.26,0 h -414.86 c 10.22,176.27 16.66,352.76 24.12,529.22 h 390.74 v -529.22 m 5748.86,561.24 h -102.72 v 529.23 h 128.29 c -3.59,-65.53 -6.98,-131.06 -10.11,-196.61 -5.28,-110.83 -10.33,-221.73 -15.46,-332.62 m -134.74,0 h -529.23 v 529.23 h 529.23 v -529.23 m -561.26,0 h -529.22 v 529.23 h 529.22 v -529.23 m -561.25,0 h -529.2 v 529.23 h 529.2 v -529.23 m -561.23,0 h -529.22 v 529.23 h 529.22 v -529.23 m -561.25,0 H 6474.4 v 529.23 h 529.22 v -529.23 m -561.25,0 h -529.23 v 529.23 h 529.23 v -529.23 m -561.25,0 H 5351.9 v 529.23 h 529.22 v -529.23 m -561.24,0 h -530.87 v 529.23 h 530.87 v -529.23 m -562.91,0 h -529.2 v 529.23 h 529.2 v -529.23 m -561.22,0 h -529.23 v 529.23 h 529.23 v -529.23 m -561.26,0 h -389.38 c 5.04,117.05 10.65,234.12 18.23,351.06 3.85,59.45 8.18,118.83 12.82,178.17 h 358.33 v -529.23 m 5776.2,561.26 h -130.06 v 529.21 h 163.02 c -2.97,-42.53 -5.87,-85.08 -8.61,-127.63 -8.59,-133.82 -16.88,-267.68 -24.35,-401.58 m -162.08,0 h -529.23 v 529.21 h 529.23 v -529.21 m -561.26,0 h -529.22 v 529.21 h 529.22 v -529.21 m -561.25,0 h -529.2 v 529.21 h 529.2 v -529.21 m -561.23,0 h -529.22 v 529.21 h 529.22 v -529.21 m -561.25,0 H 6474.4 v 529.21 h 529.22 v -529.21 m -561.25,0 h -529.23 v 529.21 h 529.23 v -529.21 m -561.25,0 H 5351.9 v 529.21 h 529.22 v -529.21 m -561.24,0 h -530.87 v 529.21 h 530.87 v -529.21 m -562.91,0 h -529.2 v 529.21 h 529.2 v -529.21 m -561.22,0 h -529.23 v 529.21 h 529.23 v -529.21 m -561.26,0 H 3278.7 c 14.15,176.59 30.83,352.85 45.65,529.21 h 310.14 v -529.21 m 5811.42,561.23 h -165.28 v 529.23 h 189.66 c 30.61,-104.65 -3.82,-239.65 -11.25,-345.11 -4.32,-61.36 -8.79,-122.73 -13.13,-184.12 m -197.3,0 h -529.23 v 529.23 h 529.23 V 8430.8 m -561.26,0 h -529.22 v 529.23 h 529.22 V 8430.8 m -561.25,0 h -529.2 v 529.23 h 529.2 V 8430.8 m -561.23,0 h -529.22 v 529.23 h 529.22 V 8430.8 m -561.25,0 H 6474.4 v 529.23 h 529.22 V 8430.8 m -561.25,0 h -529.23 v 529.23 h 529.23 V 8430.8 m -561.25,0 H 5351.9 v 529.23 h 529.22 V 8430.8 m -561.24,0 h -530.87 v 529.23 h 530.87 V 8430.8 m -562.91,0 h -529.2 v 529.23 h 529.2 V 8430.8 m -561.22,0 h -529.23 v 529.23 h 529.23 V 8430.8 m -561.26,0 h -307.48 c 14.55,176.06 27,352.32 32.97,529.23 h 274.51 V 8430.8 m 5823.93,561.25 h -177.79 v 131.4 c 76.38,-19.18 143.47,-56.12 177.79,-131.4 m -209.81,0 h -529.23 v 175.73 c 108.08,-6.44 216.18,-12.69 324.22,-19.28 62.41,-3.81 136.04,-5.18 205.01,-18.08 v -138.37 m -561.26,0 h -529.22 v 457.71 c 25.09,-2.96 50.26,-5.39 75.64,-7.09 2.56,0.82 5.05,1.7 7.86,2.19 36.95,6.51 83.89,13.86 129.51,13.86 83.06,0 161.71,-24.39 167.47,-122.68 2.87,-49.02 -8.03,-103.1 -20.53,-155.9 56.41,-3.6 112.84,-7.05 169.27,-10.44 v -177.65 m -561.25,0 h -529.2 v 262.5 c 84.23,-7.77 168.47,-15.43 252.72,-22.85 3.98,58.89 8.08,117.78 11.14,176.76 2.41,46.4 36.11,73.32 77.99,73.32 5.38,0 10.9,-0.45 16.49,-1.35 57.83,-9.31 114.28,-19.05 170.86,-26.63 v -461.75 m -561.23,0 h -529.22 v 314.62 c 176.41,-16.06 352.81,-32.82 529.22,-49.16 v -265.46 m -561.25,0 H 6474.4 v 361.68 c 91,-6.77 182.01,-13.92 272.95,-21.64 85.45,-7.24 170.85,-14.79 256.27,-22.52 v -317.52 m -561.25,0 h -529.23 v 400.49 c 176.44,-11.81 352.87,-23.48 529.23,-36.44 v -364.05 m -561.25,0 H 5351.9 v 440.35 c 176.33,-13.79 352.75,-25.87 529.22,-37.71 v -402.64 m -561.24,0 h -530.87 v 529.23 h 307.2 c -2.51,-23.84 -5.03,-45.73 -5.59,-63.19 -0.05,-1.28 -0.11,-2.56 -0.16,-3.84 36.13,-3.16 72.25,-6.36 108.38,-9.42 40.36,-3.41 80.67,-6.7 121.04,-9.91 v -442.87 m -562.91,0 h -529.2 v 529.23 h 115.24 c 37.19,-3.22 74.36,-6.49 111.54,-9.8 0.59,3.27 1.18,6.53 1.77,9.8 h 300.65 v -529.23 m -561.22,0 h -529.23 v 529.23 h 529.23 v -529.23 m -561.26,0 h -273.5 c 0.13,4.35 0.25,8.65 0.37,13 4.01,146.33 -8.92,392.69 87.14,516.23 h 185.99 v -529.23 m 1464.83,561.26 h -310.31 v 163.01 c 24.15,-23.95 61.66,-60.4 50.21,-68.94 23.13,8.54 70.6,58.96 91.51,69.42 24.23,12.15 53.28,22.97 80.95,22.97 21.8,0 42.74,-6.71 59.81,-24.76 33.09,-34.99 33.01,-100.86 27.83,-161.7 m -342.35,0 h -294.88 c 10.3,57.56 20.24,115.19 28.97,173.01 5.8,38.44 36.65,55.68 69.12,55.68 41.37,0 85.38,-28.01 83.53,-75.83 11.21,8.56 22.42,17.12 33.62,25.68 11.8,13.16 30.19,19.82 48.54,19.82 10.83,0 21.66,-2.32 31.1,-7.01 v -191.35 m -813.52,0 h -276.93 v 36.35 c 11.8,-4.48 21.48,-11.58 29.08,-20.15 82.64,-4.8 165.26,-10.25 247.85,-16.2 m -308.96,0 h -155.15 c 32.98,27.3 75.38,43.38 129.95,43.38 8.12,0 16.53,-0.36 25.2,-1.08 v -42.3"
           style="fill:#e6e4e1;fill-opacity:1;fill-rule:nonzero;stroke:none"
           id="path24" />
        <path
           d="m 8687.35,1883.3 v 340.12 H 8158.13 V 1923.7 c -10.67,1.3 -21.37,2.6 -32.03,4 v 295.72 h -529.2 v -207.06 c -10.67,1.96 -21.35,3.91 -32.03,5.86 v 201.2 h -529.22 v -122.83 c -10.68,0.98 -21.36,1.9 -32.03,2.78 v 120.05 H 6474.4 v -130.25 c -10.68,-1.05 -21.37,-2.11 -32.03,-3.16 v 133.41 h -529.23 v -148.55 c -10.69,0.96 -21.35,1.99 -32.02,3.07 v 145.48 H 5351.9 v -66.12 c -9.58,1.48 -19.15,2.94 -28.73,4.37 -1.1,0.17 -2.19,0.33 -3.29,0.49 v 61.26 h -530.87 v -18.66 c -10.7,0.31 -21.34,0.6 -32.04,0.87 v 17.79 h -529.2 v -11.69 c -10.67,0.15 -21.35,0.32 -32.02,0.5 v 11.19 h -315.02 c -103.8,6.19 -210.86,15.86 -316.96,32.03 h 70.72 v 529.22 h -529.22 v -401.63 c -10.77,4.9 -21.46,9.95 -32.03,15.14 v 386.49 h -219.36 c 0.39,10.69 0.88,21.38 1.39,32.02 h 217.97 v 529.23 h -207.25 c 0.2,10.68 0.4,21.34 0.61,32.02 h 206.64 v 529.22 h -190.7 c 0.5,10.67 1.01,21.35 1.53,32.02 h 189.17 v 529.23 h -152.2 c 0.98,10.69 1.98,21.34 3,32.03 h 149.2 v 529.21 h -84.93 c 1.57,10.68 3.15,21.35 4.75,32.03 h 80.18 v 497.44 c 10.8,65.07 21.54,130.16 32.03,195.28 v -131.47 h 529.22 v 529.22 h -470.11 c 1.41,10.67 2.8,21.35 4.17,32.03 h 465.94 v 530.86 h -416.76 c 0.65,10.67 1.28,21.36 1.9,32.03 h 414.86 v 529.22 h -390.74 c 0.45,10.69 0.9,21.34 1.36,32.02 h 389.38 v 529.23 h -358.33 c 0.84,10.68 1.69,21.35 2.54,32.03 h 355.79 v 529.21 h -310.14 c 0.89,10.69 1.78,21.33 2.66,32.02 h 307.48 v 529.23 h -274.51 c 0.36,10.66 0.7,21.36 1.01,32.02 h 273.5 v 529.23 H 3448.5 c 9.24,11.87 19.48,22.62 30.84,32.03 h 155.15 v 42.3 c 4.49,-0.38 9.04,-0.86 13.68,-1.44 6.6,-0.82 12.72,-2.37 18.35,-4.51 v -36.35 h 276.93 c 133.24,-9.61 266.42,-20.5 399.56,-32.03 h -115.24 v -529.23 h 529.2 v 529.23 h -300.65 c 1.93,10.67 3.86,21.34 5.77,32.03 h 294.88 v 191.35 c 6.42,-3.18 12.19,-7.44 16.91,-12.81 3.38,-3.83 8.79,-9.25 15.13,-15.53 v -163.01 h 310.31 c -0.92,-10.91 -2.01,-21.65 -3.11,-32.03 h -307.2 v -529.23 h 530.87 v 442.87 c 10.65,-0.84 21.38,-1.69 32.02,-2.52 v -440.35 h 529.22 v 402.64 c 10.68,-0.72 21.34,-1.43 32.02,-2.15 v -400.49 h 529.23 v 364.05 c 10.68,-0.79 21.35,-1.57 32.03,-2.37 v -361.68 h 529.22 v 317.52 c 10.67,-0.96 21.35,-1.93 32.03,-2.9 v -314.62 h 529.22 v 265.46 c 10.67,-0.98 21.35,-1.97 32.03,-2.96 v -262.5 h 529.2 v 461.75 c 10.67,-1.43 21.35,-2.78 32.03,-4.04 v -457.71 h 529.22 v 177.65 c 10.68,-0.64 21.35,-1.28 32.03,-1.92 v -175.73 h 529.23 v 138.37 c 10.81,-2.02 21.5,-4.33 32.02,-6.97 v -131.4 h 177.79 c 3.57,-7.83 6.8,-16.08 9.63,-24.77 0.78,-2.4 1.53,-4.82 2.24,-7.25 H 9280.63 V 8430.8 h 165.28 c -0.76,-10.67 -1.51,-21.35 -2.26,-32.02 h -163.02 v -529.21 h 130.06 c -0.6,-10.67 -1.19,-21.36 -1.77,-32.03 h -128.29 v -529.23 h 102.72 c -0.5,-10.69 -0.99,-21.32 -1.49,-32.02 h -101.23 v -529.22 h 74.46 c -0.61,-10.68 -1.23,-21.34 -1.85,-32.03 h -72.61 v -530.86 h 35.47 c -0.86,-10.67 -1.72,-21.36 -2.58,-32.03 h -32.89 v -399.51 c -10.53,-125.68 -21.21,-251.27 -32.02,-376.93 v 215.19 h -529.23 v -529.22 h 501.98 c -0.93,-10.67 -1.86,-21.36 -2.8,-32.03 h -499.18 v -529.21 h 452.46 c -0.95,-10.67 -1.9,-21.36 -2.84,-32.03 h -449.62 v -529.23 h 402.54 c -0.95,-10.66 -1.9,-21.35 -2.85,-32.02 h -399.69 v -529.22 h 353.24 c -0.87,-10.68 -1.72,-21.33 -2.58,-32.02 h -350.66 v -529.23 h 310.52 c -0.89,-10.67 -1.79,-21.36 -2.7,-32.02 h -307.82 v -529.22 h 245.65 c -1.72,-10.68 -3.48,-21.37 -5.28,-32.03 H 8719.38 V 1886.2 c -10.33,-1.3 -21.02,-2.3 -32.03,-2.9 m -529.22,901.37 v -529.22 h 529.22 v 529.22 h -529.22 m -561.23,0 v -529.22 h 529.2 v 529.22 h -529.2 m -561.25,0 v -529.22 h 529.22 v 529.22 h -529.22 m -561.25,0 v -529.22 h 529.22 v 529.22 H 6474.4 m -561.26,0 v -529.22 h 529.23 v 529.22 h -529.23 m -561.24,0 v -529.22 h 529.22 v 529.22 H 5351.9 m -562.89,0 v -529.22 h 530.87 v 529.22 h -530.87 m -561.24,0 v -529.22 h 529.2 v 529.22 h -529.2 m -561.25,0 v -529.22 h 529.23 v 529.22 h -529.23 m 4491.61,561.25 v -529.23 h 529.22 v 529.23 h -529.22 m -561.23,0 v -529.23 h 529.2 v 529.23 h -529.2 m -561.25,0 v -529.23 h 529.22 v 529.23 h -529.22 m -561.25,0 v -529.23 h 529.22 v 529.23 H 6474.4 m -561.26,0 v -529.23 h 529.23 v 529.23 h -529.23 m -561.24,0 v -529.23 h 529.22 v 529.23 H 5351.9 m -562.89,0 v -529.23 h 530.87 v 529.23 h -530.87 m -561.24,0 v -529.23 h 529.2 v 529.23 h -529.2 m -561.25,0 v -529.23 h 529.23 v 529.23 h -529.23 m -561.25,0 v -529.23 h 529.22 v 529.23 h -529.22 m 5052.86,561.24 v -529.22 h 529.22 v 529.22 h -529.22 m -561.23,0 v -529.22 h 529.2 v 529.22 h -529.2 m -561.25,0 v -529.22 h 529.22 v 529.22 h -529.22 m -561.25,0 v -529.22 h 529.22 v 529.22 H 6474.4 m -561.26,0 v -529.22 h 529.23 v 529.22 h -529.23 m -561.24,0 v -529.22 h 529.22 v 529.22 H 5351.9 m -562.89,0 v -529.22 h 530.87 v 529.22 h -530.87 m -561.24,0 v -529.22 h 529.2 v 529.22 h -529.2 m -561.25,0 v -529.22 h 529.23 v 529.22 h -529.23 m -561.25,0 v -529.22 h 529.22 v 529.22 h -529.22 m 5052.86,561.25 v -529.23 h 529.22 v 529.23 h -529.22 m -561.23,0 v -529.23 h 529.2 v 529.23 h -529.2 m -561.25,0 v -529.23 h 529.22 v 529.23 h -529.22 m -561.25,0 v -529.23 h 529.22 v 529.23 H 6474.4 m -561.26,0 v -529.23 h 529.23 v 529.23 h -529.23 m -561.24,0 v -529.23 h 529.22 v 529.23 H 5351.9 m -562.89,0 v -529.23 h 530.87 v 529.23 h -530.87 m -561.24,0 v -529.23 h 529.2 v 529.23 h -529.2 m -561.25,0 v -529.23 h 529.23 v 529.23 h -529.23 m -561.25,0 v -529.23 h 529.22 v 529.23 h -529.22 m 5052.86,561.24 v -529.21 h 529.22 v 529.21 h -529.22 m -561.23,0 v -529.21 h 529.2 v 529.21 h -529.2 m -561.25,0 v -529.21 h 529.22 v 529.21 h -529.22 m -561.25,0 v -529.21 h 529.22 v 529.21 H 6474.4 m -561.26,0 v -529.21 h 529.23 v 529.21 h -529.23 m -561.24,0 v -529.21 h 529.22 v 529.21 H 5351.9 m -562.89,0 v -529.21 h 530.87 v 529.21 h -530.87 m -561.24,0 v -529.21 h 529.2 v 529.21 h -529.2 m -561.25,0 v -529.21 h 529.23 v 529.21 h -529.23 m -561.25,0 v -529.21 h 529.22 v 529.21 h -529.22 m 5052.86,561.25 v -529.22 h 529.22 v 529.22 h -529.22 m -561.23,0 v -529.22 h 529.2 v 529.22 h -529.2 m -561.25,0 v -529.22 h 529.22 v 529.22 h -529.22 m -561.25,0 v -529.22 h 529.22 V 5590.9 H 6474.4 m -561.26,0 v -529.22 h 529.23 v 529.22 h -529.23 m -561.24,0 v -529.22 h 529.22 V 5590.9 H 5351.9 m -562.89,0 v -529.22 h 530.87 v 529.22 h -530.87 m -561.24,0 v -529.22 h 529.2 v 529.22 h -529.2 m -561.25,0 v -529.22 h 529.23 v 529.22 h -529.23 m -561.25,0 v -529.22 h 529.22 v 529.22 h -529.22 m 5614.11,561.25 v -529.22 h 529.23 v 529.22 h -529.23 m -561.25,0 v -529.22 h 529.22 v 529.22 h -529.22 m -561.23,0 v -529.22 h 529.2 v 529.22 h -529.2 m -561.25,0 v -529.22 h 529.22 v 529.22 h -529.22 m -561.25,0 v -529.22 h 529.22 v 529.22 H 6474.4 m -561.26,0 v -529.22 h 529.23 v 529.22 h -529.23 m -561.24,0 v -529.22 h 529.22 v 529.22 H 5351.9 m -562.89,0 v -529.22 h 530.87 v 529.22 h -530.87 m -561.24,0 v -529.22 h 529.2 v 529.22 h -529.2 m -561.25,0 v -529.22 h 529.23 v 529.22 h -529.23 m 5052.86,562.89 v -530.86 h 529.23 v 530.86 h -529.23 m -561.25,0 v -530.86 h 529.22 v 530.86 h -529.22 m -561.23,0 v -530.86 h 529.2 v 530.86 h -529.2 m -561.25,0 v -530.86 h 529.22 v 530.86 h -529.22 m -561.25,0 v -530.86 h 529.22 v 530.86 H 6474.4 m -561.26,0 v -530.86 h 529.23 v 530.86 h -529.23 m -561.24,0 v -530.86 h 529.22 v 530.86 H 5351.9 m -562.89,0 v -530.86 h 530.87 v 530.86 h -530.87 m -561.24,0 v -530.86 h 529.2 v 530.86 h -529.2 m -561.25,0 v -530.86 h 529.23 v 530.86 h -529.23 m 5052.86,561.25 v -529.22 h 529.23 v 529.22 h -529.23 m -561.25,0 v -529.22 h 529.22 v 529.22 h -529.22 m -561.23,0 v -529.22 h 529.2 v 529.22 h -529.2 m -561.25,0 v -529.22 h 529.22 v 529.22 h -529.22 m -561.25,0 v -529.22 h 529.22 v 529.22 H 6474.4 m -561.26,0 v -529.22 h 529.23 v 529.22 h -529.23 m -561.24,0 v -529.22 h 529.22 v 529.22 H 5351.9 m -562.89,0 v -529.22 h 530.87 v 529.22 h -530.87 m -561.24,0 v -529.22 h 529.2 v 529.22 h -529.2 m -561.25,0 v -529.22 h 529.23 v 529.22 h -529.23 m 5052.86,561.25 v -529.23 h 529.23 v 529.23 h -529.23 m -561.25,0 v -529.23 h 529.22 v 529.23 h -529.22 m -561.23,0 v -529.23 h 529.2 v 529.23 h -529.2 m -561.25,0 v -529.23 h 529.22 v 529.23 h -529.22 m -561.25,0 v -529.23 h 529.22 v 529.23 H 6474.4 m -561.26,0 v -529.23 h 529.23 v 529.23 h -529.23 m -561.24,0 v -529.23 h 529.22 v 529.23 H 5351.9 m -562.89,0 v -529.23 h 530.87 v 529.23 h -530.87 m -561.24,0 v -529.23 h 529.2 v 529.23 h -529.2 m -561.25,0 v -529.23 h 529.23 v 529.23 h -529.23 m 5052.86,561.24 v -529.21 h 529.23 v 529.21 h -529.23 m -561.25,0 v -529.21 h 529.22 v 529.21 h -529.22 m -561.23,0 v -529.21 h 529.2 v 529.21 h -529.2 m -561.25,0 v -529.21 h 529.22 v 529.21 h -529.22 m -561.25,0 v -529.21 h 529.22 v 529.21 H 6474.4 m -561.26,0 v -529.21 h 529.23 v 529.21 h -529.23 m -561.24,0 v -529.21 h 529.22 v 529.21 H 5351.9 m -562.89,0 v -529.21 h 530.87 v 529.21 h -530.87 m -561.24,0 v -529.21 h 529.2 v 529.21 h -529.2 m -561.25,0 v -529.21 h 529.23 v 529.21 h -529.23 m 5052.86,561.25 V 8430.8 h 529.23 v 529.23 h -529.23 m -561.25,0 V 8430.8 h 529.22 v 529.23 h -529.22 m -561.23,0 V 8430.8 h 529.2 v 529.23 h -529.2 m -561.25,0 V 8430.8 h 529.22 v 529.23 h -529.22 m -561.25,0 V 8430.8 h 529.22 v 529.23 H 6474.4 m -561.26,0 V 8430.8 h 529.23 v 529.23 h -529.23 m -561.24,0 V 8430.8 h 529.22 v 529.23 H 5351.9 m -562.89,0 V 8430.8 h 530.87 v 529.23 h -530.87 m -561.24,0 V 8430.8 h 529.2 v 529.23 h -529.2 m -561.25,0 V 8430.8 h 529.23 v 529.23 h -529.23 m 0,561.25 v -529.23 h 529.23 v 529.23 h -529.23"
           style="fill:#cbd7e0;fill-opacity:1;fill-rule:nonzero;stroke:none"
           id="path26" />
        <path
           d="m 6142.94,7706.42 c -481.72,57.93 -959.71,135 -1440.09,200.21 -472.47,64.14 -947.32,87.49 -1417.78,167.85 -21.95,-330.04 -36.03,-659.9 -48.82,-991.48 -35.75,-926.67 -264.74,-1829.07 -330.14,-2752.82 -29.39,-414.94 -41.05,-830.72 -37.2,-1246.65 1.03,-111.28 -24.93,-243.97 65.4,-318.29 62.13,-51.05 176.9,-72.35 254.62,-94.71 182.23,-52.47 369.99,-76.33 558.58,-91 369.32,-28.73 740.78,-11.71 1109.81,-45.82 400.78,-37.07 795.76,-155.53 1200.56,-141.69 200.37,6.88 398.11,44.71 599.18,37.61 201.75,-7.17 400.29,-47.31 599.88,-73.81 204.94,-27.22 410.99,-41.35 617.32,-52.87 103.46,-5.82 206.38,-14.57 309.66,-23.02 85.38,-6.95 228.39,-45.71 310.14,-22.32 34.8,-11.83 55.83,1.64 63.09,40.47 2.98,23.12 5.95,46.22 8.92,69.31 6.94,57.27 12.35,114.68 18.85,171.95 10.87,95.7 23.02,191.21 33.64,286.94 23.33,210.19 43.53,420.79 63.92,631.28 40.59,419.22 82.21,838.66 114.4,1258.62 64.36,839.86 110.94,1680.68 187.21,2519.6 8.51,93.54 17.13,187.04 25.71,280.53 -468.66,70.04 -938.03,85.74 -1412.72,94.56 -488.14,9.11 -969.17,37.25 -1454.14,95.55"
           style="fill:#f4f2ed;fill-opacity:1;fill-rule:nonzero;stroke:none"
           id="path28" />
        <path
           d="m 9040.2,9110.2 c -75.41,31.73 -196.84,15.66 -279.31,21.44 -114.92,8.06 -229.79,16.69 -344.64,25.66 -842.08,65.65 -1684.93,109.31 -2525.04,199.4 -789.41,84.68 -1583.44,143.34 -2365.92,278.7 -10.91,-8.82 -25.67,-14.27 -44.94,-13.58 -89.57,3.08 -83,-31.58 -96.09,-114.94 -17.43,-110.92 -23.9,-221.94 -26.77,-334.07 -5.64,-219.78 -17.52,-437.11 -37.76,-656.09 -11.01,-119.11 -20.56,-238.08 -28.99,-357.01 496.7,-36.01 983.58,-133.2 1478.49,-184.32 485.57,-50.1 970.98,-98.3 1456.41,-152.02 486.1,-53.83 969.05,-68.54 1457.37,-82.92 446.42,-13.14 892.1,-78.6 1333.74,-147.95 27.57,301.02 54.5,602.12 75.95,903.72 8.14,114.58 15.56,229.19 23.32,343.77 7.01,103.49 40.34,221.36 -75.82,270.21"
           style="fill:#e0cad2;fill-opacity:1;fill-rule:nonzero;stroke:none"
           id="path30" />
        <path
           d="m 9116.02,8839.99 c -7.76,-114.58 -15.18,-229.19 -23.32,-343.77 -21.45,-301.6 -48.38,-602.7 -75.95,-903.72 -441.64,69.35 -887.32,134.81 -1333.74,147.95 -488.32,14.38 -971.27,29.09 -1457.37,82.92 -485.43,53.72 -970.84,101.92 -1456.41,152.02 -494.91,51.12 -981.79,148.31 -1478.49,184.32 8.43,118.93 17.98,237.9 28.99,357.01 20.24,218.98 32.12,436.31 37.76,656.09 2.87,112.13 9.34,223.15 26.77,334.07 13.09,83.36 6.52,118.02 96.09,114.94 19.27,-0.69 34.03,4.76 44.94,13.58 782.48,-135.36 1576.51,-194.02 2365.92,-278.7 840.11,-90.09 1682.96,-133.75 2525.04,-199.4 114.85,-8.97 229.72,-17.6 344.64,-25.66 82.47,-5.78 203.9,10.29 279.31,-21.44 116.16,-48.85 82.83,-166.72 75.82,-270.21 z M 8984.09,7235.78 c -76.27,-838.92 -122.85,-1679.74 -187.21,-2519.6 -32.19,-419.96 -73.81,-839.4 -114.4,-1258.62 -20.39,-210.49 -40.59,-421.09 -63.92,-631.28 -10.62,-95.73 -22.77,-191.24 -33.64,-286.94 -6.5,-57.27 -11.91,-114.68 -18.85,-171.95 -2.97,-23.09 -5.94,-46.19 -8.92,-69.31 -7.26,-38.83 -28.29,-52.3 -63.09,-40.47 -81.75,-23.39 -224.76,15.37 -310.14,22.32 -103.28,8.45 -206.2,17.2 -309.66,23.02 -206.33,11.52 -412.38,25.65 -617.32,52.87 -199.59,26.5 -398.13,66.64 -599.88,73.81 -201.07,7.1 -398.81,-30.73 -599.18,-37.61 -404.8,-13.84 -799.78,104.62 -1200.56,141.69 -369.03,34.11 -740.49,17.09 -1109.81,45.82 -188.59,14.67 -376.35,38.53 -558.58,91 -77.72,22.36 -192.49,43.66 -254.62,94.71 -90.33,74.32 -64.37,207.01 -65.4,318.29 -3.85,415.93 7.81,831.71 37.2,1246.65 65.4,923.75 294.39,1826.15 330.14,2752.82 12.79,331.58 26.87,661.44 48.82,991.48 470.46,-80.36 945.31,-103.71 1417.78,-167.85 480.38,-65.21 958.37,-142.28 1440.09,-200.21 484.97,-58.3 966,-86.44 1454.14,-95.55 474.69,-8.82 944.06,-24.52 1412.72,-94.56 -8.58,-93.49 -17.2,-186.99 -25.71,-280.53 z m -108.31,2080.48 c -248.86,15.19 -497.99,28.4 -746.66,46.66 -517.04,37.91 -1033,93.17 -1549.59,136.93 -515.74,43.77 -1032.78,69.17 -1548.51,112.75 -500.68,42.3 -1001.58,95.55 -1503.24,124.67 -11.22,12.67 -26.98,22.11 -47.43,24.67 -310.28,38.72 -281.05,-378.67 -286.81,-589.13 -12.34,-450.47 -68.9,-896.18 -98.02,-1345.67 -29.59,-456.51 -29.15,-914.41 -81.85,-1369.38 -53.29,-460.13 -146.29,-914.42 -209.25,-1373.16 -62.69,-456.87 -91.88,-916.75 -102.29,-1377.65 -4.7,-207.75 -7.82,-415.6 -10.66,-623.42 -2.2,-161.96 -43.51,-362.75 115.66,-462.91 308.7,-194.24 737.05,-226.48 1090.55,-237.53 420.47,-13.17 839.98,8.82 1257.67,-53.65 208.58,-31.21 415.7,-73.77 626.31,-89.84 222.73,-17.01 436.28,15.01 657.25,33.7 467.32,39.64 949.51,-92.87 1409.35,-162.58 195.23,-29.61 392.39,-45.53 589.38,-58.7 184.71,-12.33 296.7,36.52 334.34,229.34 85.82,439.6 100.75,902.22 139.87,1347.79 82.06,934.68 168.4,1869.4 242.99,2804.71 36.47,457.39 54.31,916.53 76.15,1374.84 10.03,210.16 22.74,420.24 36.23,630.22 7.37,114.65 15.93,229.22 24,343.76 7.6,107.92 43.47,246.76 9.01,352.37 -57.78,177.01 -273.84,172.02 -424.45,181.21"
           style="fill:#4c4a4a;fill-opacity:1;fill-rule:nonzero;stroke:none"
           id="path32" />
        <path
           d="m 7664.69,4457.42 c 6.42,0 6.43,9.97 0,9.97 -6.42,0 -6.43,-9.97 0,-9.97"
           style="fill:#4c4a4a;fill-opacity:1;fill-rule:nonzero;stroke:none"
           id="path34" />
        <path
           d="m 3819.71,6649.69 c 190.07,-42.43 378.41,-65.76 573.47,-63.44 7.95,0.12 7.81,11.74 0,12.25 -190.66,12.75 -380.84,33.19 -568.77,68.26 -11.05,2.04 -15.91,-14.57 -4.7,-17.07"
           style="fill:#4c4a4a;fill-opacity:1;fill-rule:nonzero;stroke:none"
           id="path36" />
        <path
           d="m 5059.18,6515.87 c 2.63,-0.28 2.56,3.77 0,4.09 -123.04,15.9 -246.43,29.42 -369.64,43.98 -1.45,0.18 -1.43,-2.09 0,-2.26 123.19,-15.36 246.3,-31.77 369.64,-45.81"
           style="fill:#4c4a4a;fill-opacity:1;fill-rule:nonzero;stroke:none"
           id="path38" />
        <path
           d="m 8079.45,6213.57 c -842.43,207.52 -1732.32,39.6 -2576.71,253.58 -1.7,0.42 -2.41,-2.16 -0.72,-2.64 836.69,-232.94 1718.85,-104.88 2566.33,-291.19 26.11,-5.72 37.3,33.79 11.1,40.25"
           style="fill:#4c4a4a;fill-opacity:1;fill-rule:nonzero;stroke:none"
           id="path40" />
        <path
           d="m 8012.13,5240.96 c -697.95,124.18 -1402.31,190.79 -2106.14,270.56 -723.75,82.02 -1464.92,108.73 -2176.27,273.53 -30.75,7.11 -43.79,-40.68 -13.03,-47.25 679.4,-145.22 1385.98,-165.2 2076.82,-224.19 741.05,-63.26 1475.45,-195.58 2211.99,-296.72 15.5,-2.12 22.67,21.21 6.63,24.07"
           style="fill:#4c4a4a;fill-opacity:1;fill-rule:nonzero;stroke:none"
           id="path42" />
        <path
           d="m 4759.62,4654.3 c 349.94,-49.49 700.76,-93.26 1050.88,-140.77 697.74,-94.64 1404.54,-173.16 2106.35,-230.61 17.93,-1.48 17.35,25.68 0,27.66 -700.76,80.33 -1402.89,159.87 -2104.2,235.13 -341.46,36.68 -680.94,83.59 -1021.54,128.03 -354.58,46.32 -719.13,137.53 -1076.61,148.79 -8.48,0.25 -10.1,-12.53 -1.99,-14.71 335.26,-90.48 703.95,-104.97 1047.11,-153.52"
           style="fill:#4c4a4a;fill-opacity:1;fill-rule:nonzero;stroke:none"
           id="path44" />
        <path
           d="m 7983.16,3209.48 c -193.5,28.23 -387.67,53.4 -580.81,83.85 -4.22,0.65 -6.16,-5.65 -1.8,-6.58 192.53,-41.41 384.12,-75.65 580.2,-95.07 10.07,-1.02 12.54,16.33 2.41,17.8"
           style="fill:#4c4a4a;fill-opacity:1;fill-rule:nonzero;stroke:none"
           id="path46" />
        <path
           d="m 7076.63,3356.22 c 1.75,0 1.75,2.73 0,2.73 -1.75,0 -1.75,-2.73 0,-2.73"
           style="fill:#4c4a4a;fill-opacity:1;fill-rule:nonzero;stroke:none"
           id="path48" />
        <path
           d="m 6876.81,3389.13 c -541.02,54.68 -1082.82,113.33 -1623.24,174.41 -276.69,31.3 -554.05,62.3 -829.64,102.13 -267.73,38.72 -530.43,101.02 -796.93,145.92 -5.45,0.94 -7.54,-6.38 -2.28,-8.31 491.81,-181.18 1054.24,-206.88 1571.9,-253.68 560.05,-50.6 1121.04,-107.26 1680.19,-166.36 3.76,-0.4 3.75,5.5 0,5.89"
           style="fill:#4c4a4a;fill-opacity:1;fill-rule:nonzero;stroke:none"
           id="path50" />
        <path
           d="m 4903.68,9882.78 c -38.76,40.96 -97.45,23.5 -140.77,1.79 -20.92,-10.46 -68.38,-60.89 -91.51,-69.42 14.45,10.77 -49.1,66.02 -65.34,84.47 -23.44,26.67 -73.06,26.19 -96.55,0 -11.2,-8.56 -22.41,-17.12 -33.62,-25.68 3.31,85.35 -139.45,107.57 -152.65,20.15 -16.24,-107.63 -36.61,-214.57 -55.88,-321.69 -14.71,-81.81 -50.24,-180.73 -45.31,-264.77 8.92,-152.27 192.75,-127.19 296.98,-108.82 2.81,0.48 5.3,1.39 7.86,2.18 93.51,-6.23 184.19,-22.56 278.52,-37.75 49.2,-7.94 91.77,19.61 94.49,71.96 6.75,130.31 18.65,260.13 22.89,390.66 2.2,67.44 33.53,201.25 -19.11,256.92"
           style="fill:#4c4a4a;fill-opacity:1;fill-rule:nonzero;stroke:none"
           id="path52" />
        <path
           d="m 8370.79,9503.8 c -8.92,152.28 -192.75,127.19 -296.98,108.82 -2.8,-0.48 -5.3,-1.36 -7.87,-2.18 -93.5,6.23 -184.18,22.56 -278.52,37.76 -49.2,7.93 -91.77,-19.62 -94.49,-71.97 -6.74,-130.31 -18.64,-260.13 -22.89,-390.66 -2.19,-67.43 -33.53,-201.25 19.13,-256.92 38.75,-40.96 97.45,-23.47 140.77,-1.79 20.9,10.49 68.37,60.89 91.5,69.45 -14.46,-10.8 49.09,-66.01 65.34,-84.49 23.44,-26.65 73.06,-26.2 96.55,0 11.2,8.56 22.41,17.11 33.62,25.67 -3.31,-85.34 139.45,-107.56 152.65,-20.15 16.24,107.63 36.61,214.6 55.88,321.69 14.71,81.8 50.24,180.73 45.31,264.77"
           style="fill:#4c4a4a;fill-opacity:1;fill-rule:nonzero;stroke:none"
           id="path54" />
      </g>
    </g>
  </g>
</svg>
